<svg width="50" height="16" viewBox="0 0 50 16" fill="none" xmlns="http://www.w3.org/2000/svg">
<path d="M25.8588 5.11513C25.8302 7.34388 27.8632 8.58769 29.3946 9.32714C30.9681 10.0859 31.4966 10.5724 31.4906 11.2509C31.4786 12.2894 30.2354 12.7476 29.0718 12.7655C27.0419 12.7967 25.8618 12.2224 24.9234 11.788L24.1922 15.1787C25.1336 15.6087 26.8767 15.9836 28.6844 16C32.9274 16 35.7035 13.9245 35.7185 10.7063C35.735 6.62228 30.0177 6.39613 30.0567 4.57058C30.0702 4.01711 30.6032 3.42645 31.7713 3.27618C33.1378 3.14632 34.5142 3.38538 35.7546 3.96801L36.4648 0.687372C35.256 0.236672 33.9757 0.00388084 32.6842 0C28.6905 0 25.8813 2.10377 25.8588 5.11512L25.8588 5.11513ZM43.2887 0.282685C42.9204 0.279855 42.5598 0.386511 42.2533 0.588875C41.9469 0.791239 41.7087 1.08001 41.5696 1.41789L35.5084 15.759H39.7484L40.5922 13.4484H45.7735L46.263 15.759H50L46.7389 0.282685H43.2887H43.2887ZM43.8817 4.46346L45.1054 10.2749H41.7542L43.8817 4.46346ZM20.718 0.282685L17.3758 15.759H21.4161L24.7568 0.282685H20.718H20.718ZM14.7408 0.282685L10.5354 10.8164L8.8343 1.85978C8.76465 1.41986 8.53857 1.01912 8.19689 0.729906C7.8552 0.440694 7.42042 0.282076 6.97105 0.282693H0.096087L0 0.732008C1.41133 1.03552 3.01483 1.52501 3.98625 2.04872C4.5808 2.3686 4.75047 2.64831 4.94564 3.40859L8.16766 15.759H12.4377L18.9838 0.282683H14.7408" fill="url(#paint0_linear_855_7410)"/>
<defs>
<linearGradient id="paint0_linear_855_7410" x1="5.37682" y1="15.1997" x2="46.5904" y2="-0.117003" gradientUnits="userSpaceOnUse">
<stop stop-color="#222357"/>
<stop offset="1" stop-color="#254AA5"/>
</linearGradient>
</defs>
</svg>
