<svg width="18" height="18" viewBox="0 0 18 18" fill="none" xmlns="http://www.w3.org/2000/svg">
<path d="M17.3333 9.00008C17.3333 11.2102 16.4553 13.3298 14.8925 14.8926C13.3297 16.4554 11.2101 17.3334 8.99996 17.3334C6.78982 17.3334 4.67021 16.4554 3.1074 14.8926C1.5446 13.3298 0.666626 11.2102 0.666626 9.00008C0.666626 6.78994 1.5446 4.67033 3.1074 3.10752C4.67021 1.54472 6.78982 0.666748 8.99996 0.666748C11.2101 0.666748 13.3297 1.54472 14.8925 3.10752C16.4553 4.67033 17.3333 6.78994 17.3333 9.00008ZM8.99996 4.31258C8.99996 4.17445 8.94509 4.04197 8.84741 3.9443C8.74974 3.84662 8.61726 3.79175 8.47913 3.79175C8.34099 3.79175 8.20852 3.84662 8.11084 3.9443C8.01317 4.04197 7.95829 4.17445 7.95829 4.31258V10.0417C7.95816 10.1336 7.98239 10.2239 8.0285 10.3034C8.07461 10.3829 8.14096 10.4487 8.22079 10.4942L11.8666 12.5776C11.9863 12.6422 12.1265 12.6575 12.2572 12.6202C12.388 12.5829 12.499 12.4959 12.5665 12.3778C12.6339 12.2597 12.6526 12.1199 12.6183 11.9883C12.5841 11.8567 12.4997 11.7437 12.3833 11.6734L8.99996 9.73925V4.31258Z" fill="#A46C46"/>
</svg>
