<svg width="34" height="27" viewBox="0 0 34 27" fill="none" xmlns="http://www.w3.org/2000/svg">
<path d="M7.24179 24.6455C7.25113 24.4825 7.30796 24.3259 7.40527 24.1949C7.50257 24.0638 7.6361 23.9641 7.78938 23.9081C7.94266 23.852 8.10899 23.842 8.26787 23.8794C8.42675 23.9167 8.57123 23.9998 8.68349 24.1182C8.79576 24.2367 8.87089 24.3854 8.89964 24.5461C8.9284 24.7067 8.9095 24.8723 8.84529 25.0223C8.78108 25.1724 8.67436 25.3004 8.53829 25.3905C8.40222 25.4806 8.24275 25.5289 8.07954 25.5295C7.96514 25.531 7.85166 25.5088 7.74626 25.4643C7.64086 25.4198 7.54581 25.354 7.46711 25.2709C7.38841 25.1879 7.32776 25.0894 7.28898 24.9818C7.2502 24.8741 7.23413 24.7596 7.24179 24.6455ZM9.47735 24.6455V23.2649H8.87697V23.6001C8.77451 23.4679 8.64185 23.3621 8.49011 23.2917C8.33837 23.2213 8.17195 23.1883 8.00483 23.1954C7.23054 23.1954 6.62355 23.8024 6.62355 24.6455C6.62355 25.4892 7.23054 26.0955 8.00483 26.0955C8.17195 26.1027 8.33836 26.0697 8.49011 25.9993C8.64185 25.9288 8.77451 25.8231 8.87697 25.6909V26.0261H9.47735V24.6455ZM29.7661 24.6455C29.7754 24.4825 29.8322 24.3259 29.9295 24.1949C30.0268 24.0638 30.1604 23.9641 30.3136 23.9081C30.4669 23.852 30.6333 23.842 30.7921 23.8794C30.951 23.9167 31.0955 23.9997 31.2078 24.1182C31.32 24.2367 31.3952 24.3854 31.4239 24.5461C31.4527 24.7067 31.4338 24.8723 31.3696 25.0223C31.3054 25.1724 31.1986 25.3004 31.0626 25.3905C30.9265 25.4806 30.767 25.5289 30.6038 25.5295C30.4894 25.531 30.3759 25.5088 30.2705 25.4643C30.1651 25.4198 30.0701 25.354 29.9914 25.2709C29.9127 25.1879 29.852 25.0894 29.8133 24.9818C29.7745 24.8741 29.7584 24.7596 29.7661 24.6455ZM32.0023 24.6455V22.156H31.4012V23.6001C31.2988 23.4679 31.1661 23.3621 31.0144 23.2917C30.8626 23.2213 30.6962 23.1883 30.5291 23.1954C29.7548 23.1954 29.1478 23.8024 29.1478 24.6455C29.1478 25.4892 29.7548 26.0955 30.5291 26.0955C30.6962 26.1027 30.8626 26.0697 31.0144 25.9992C31.1661 25.9288 31.2988 25.8231 31.4012 25.6909V26.0261H32.0023L32.0023 24.6455ZM16.9299 23.733C17.3167 23.733 17.5653 23.9757 17.6288 24.4028H16.196C16.2601 24.0041 16.5021 23.733 16.9299 23.733H16.9299ZM16.9418 23.1954C16.1325 23.1954 15.5665 23.7846 15.5665 24.6455C15.5665 25.5236 16.1556 26.0955 16.9821 26.0955C17.3942 26.11 17.7971 25.9723 18.1141 25.7087L17.8199 25.2637C17.5915 25.4463 17.3089 25.548 17.0165 25.5527C16.818 25.5693 16.6207 25.508 16.4666 25.3817C16.3124 25.2555 16.2135 25.0742 16.1907 24.8762H18.2411C18.247 24.8015 18.253 24.7261 18.253 24.6455C18.247 23.7846 17.7154 23.1954 16.9418 23.1954ZM24.1914 24.6455C24.2007 24.4825 24.2575 24.3259 24.3548 24.1949C24.4521 24.0638 24.5857 23.9641 24.7389 23.9081C24.8922 23.852 25.0586 23.842 25.2174 23.8794C25.3763 23.9167 25.5208 23.9998 25.6331 24.1182C25.7453 24.2367 25.8205 24.3854 25.8492 24.5461C25.878 24.7067 25.8591 24.8723 25.7949 25.0223C25.7307 25.1724 25.6239 25.3004 25.4879 25.3905C25.3518 25.4806 25.1923 25.5289 25.0291 25.5295C24.9147 25.531 24.8012 25.5088 24.6958 25.4643C24.5904 25.4198 24.4954 25.354 24.4167 25.2709C24.338 25.1879 24.2773 25.0894 24.2386 24.9818C24.1998 24.8741 24.1837 24.7596 24.1914 24.6455ZM26.4269 24.6455V23.2649H25.8265V23.6001C25.724 23.4679 25.5914 23.3622 25.4396 23.2918C25.2879 23.2214 25.1215 23.1884 24.9544 23.1954C24.1801 23.1954 23.5731 23.8024 23.5731 24.6455C23.5731 25.4892 24.1801 26.0955 24.9544 26.0955C25.1215 26.1026 25.2879 26.0696 25.4396 25.9992C25.5914 25.9288 25.724 25.823 25.8265 25.6909V26.0261H26.4269V24.6455ZM20.8006 24.6455C20.8006 25.4832 21.3838 26.0955 22.2738 26.0955C22.6344 26.1136 22.9887 25.9961 23.267 25.7662L22.9787 25.2809C22.7709 25.4395 22.5174 25.5267 22.256 25.5295C22.0308 25.5158 21.8194 25.4167 21.6648 25.2524C21.5102 25.0881 21.4242 24.871 21.4242 24.6455C21.4242 24.4199 21.5102 24.2028 21.6648 24.0385C21.8194 23.8743 22.0308 23.7752 22.256 23.7614C22.5174 23.7643 22.7709 23.8515 22.9787 24.01L23.267 23.5247C22.9887 23.2948 22.6344 23.1773 22.2738 23.1954C21.3838 23.1954 20.8006 23.8077 20.8006 24.6455ZM28.5415 23.1954C28.395 23.1912 28.25 23.2265 28.1219 23.2977C27.9938 23.369 27.8872 23.4734 27.8135 23.6001V23.2649H27.2184V26.0261H27.8194V24.4782C27.8194 24.0213 28.0158 23.7674 28.4086 23.7674C28.5371 23.7655 28.6648 23.7891 28.7841 23.8368L28.9693 23.2708C28.832 23.2215 28.6873 23.196 28.5415 23.1954L28.5415 23.1954ZM12.4469 23.4844C12.1069 23.2822 11.7161 23.1819 11.3208 23.1954C10.6212 23.1954 10.171 23.5307 10.171 24.0795C10.171 24.5298 10.5062 24.8075 11.1238 24.8941L11.4074 24.9344C11.7367 24.9807 11.8921 25.0673 11.8921 25.2234C11.8921 25.4369 11.6726 25.5586 11.2626 25.5586C10.9327 25.5681 10.6092 25.4663 10.3442 25.2697L10.0612 25.7371C10.411 25.9816 10.8301 26.1072 11.2567 26.0955C12.0541 26.0955 12.5163 25.7199 12.5163 25.1943C12.5163 24.7089 12.1526 24.455 11.5516 24.3684L11.2686 24.3274C11.0087 24.293 10.8004 24.2415 10.8004 24.0563C10.8004 23.854 10.9968 23.733 11.3261 23.733C11.6285 23.7375 11.9248 23.819 12.187 23.9697L12.4469 23.4844ZM20.1936 23.1954C20.0472 23.1911 19.9023 23.2264 19.7743 23.2976C19.6462 23.3689 19.5398 23.4734 19.4663 23.6001V23.2648H18.8712V26.0261H19.4716V24.4782C19.4716 24.0213 19.668 23.7674 20.0607 23.7674C20.1893 23.7655 20.3169 23.7891 20.4363 23.8368L20.6214 23.2708C20.4842 23.2215 20.3395 23.196 20.1936 23.1954H20.1936ZM15.0699 23.2648H14.088V22.4271H13.481V23.2649H12.921V23.8137H13.481V25.0733C13.481 25.714 13.7296 26.0955 14.4398 26.0955C14.7053 26.0965 14.9657 26.0225 15.1909 25.8819L15.0177 25.3675C14.8565 25.4636 14.6736 25.5173 14.4861 25.5236C14.1859 25.5236 14.088 25.3384 14.088 25.0614V23.8137H15.0699L15.0699 23.2648ZM6.0926 26.0261V24.293C6.10273 24.1473 6.08166 24.001 6.03081 23.864C5.97995 23.727 5.90047 23.6024 5.79767 23.4985C5.69486 23.3947 5.5711 23.3139 5.43463 23.2616C5.29815 23.2094 5.15211 23.1868 5.00622 23.1954C4.81527 23.1829 4.62446 23.2219 4.45372 23.3084C4.28298 23.3948 4.13857 23.5254 4.03556 23.6867C3.94174 23.5303 3.80745 23.4021 3.64686 23.3156C3.48626 23.2292 3.30531 23.1876 3.12308 23.1954C2.96427 23.1874 2.80611 23.2211 2.66428 23.293C2.52245 23.3649 2.40185 23.4726 2.31442 23.6054V23.2649H1.71338V26.0261H2.31971V24.4954C2.31971 24.016 2.58552 23.7614 2.99613 23.7614C3.39485 23.7614 3.59652 24.0213 3.59652 24.4894V26.0261H4.20351V24.4954C4.20351 24.016 4.48056 23.7614 4.87927 23.7614C5.28922 23.7614 5.48561 24.0213 5.48561 24.4894V26.0261H6.0926Z" fill="#231F20"/>
<path d="M21.3719 18.5781H12.2725V2.22498H21.3719V18.5781Z" fill="#FF5F00"/>
<path d="M12.8555 10.4002C12.8541 8.82536 13.2109 7.27077 13.8991 5.85418C14.5872 4.43758 15.5886 3.19608 16.8274 2.22367C15.2932 1.01768 13.4506 0.267689 11.5102 0.0594099C9.5699 -0.148869 7.61011 0.19297 5.85487 1.04586C4.09963 1.89874 2.61975 3.22826 1.5844 4.88246C0.549053 6.53665 0 8.44876 0 10.4002C0 12.3517 0.549053 14.2638 1.5844 15.918C2.61975 17.5722 4.09963 18.9017 5.85487 19.7546C7.61011 20.6075 9.5699 20.9494 11.5102 20.7411C13.4506 20.5328 15.2932 19.7828 16.8274 18.5768C15.5886 17.6044 14.5872 16.3629 13.8991 14.9463C13.2109 13.5297 12.8541 11.9751 12.8555 10.4002Z" fill="#EB001B"/>
<path d="M33.6441 10.4002C33.6442 12.3517 33.0953 14.2638 32.06 15.918C31.0247 17.5722 29.5449 18.9017 27.7898 19.7546C26.0346 20.6075 24.0748 20.9494 22.1345 20.7411C20.1942 20.5328 18.3517 19.7828 16.8175 18.5768C18.0554 17.6036 19.0562 16.3619 19.7444 14.9455C20.4325 13.5291 20.7901 11.975 20.7901 10.4002C20.7901 8.82553 20.4325 7.27137 19.7444 5.85498C19.0562 4.43859 18.0554 3.19694 16.8175 2.22367C18.3517 1.01768 20.1942 0.267683 22.1345 0.059407C24.0748 -0.148869 26.0346 0.192982 27.7898 1.04588C29.5449 1.89878 31.0247 3.22832 32.06 4.88251C33.0953 6.53671 33.6442 8.44881 33.6441 10.4002Z" fill="#F79E1B"/>
</svg>
