<svg width="16" height="17" viewBox="0 0 16 17" fill="none" xmlns="http://www.w3.org/2000/svg">
<path fill-rule="evenodd" clip-rule="evenodd" d="M4.99753 3.73667C5.03469 3.69938 5.07885 3.66979 5.12747 3.6496C5.17609 3.62941 5.22822 3.61902 5.28087 3.61902C5.33351 3.61902 5.38564 3.62941 5.43426 3.6496C5.48288 3.66979 5.52704 3.69938 5.5642 3.73667L10.3642 8.53667C10.4015 8.57383 10.4311 8.61799 10.4513 8.66661C10.4715 8.71523 10.4818 8.76735 10.4818 8.82C10.4818 8.87265 10.4715 8.92477 10.4513 8.97339C10.4311 9.02202 10.4015 9.06617 10.3642 9.10333L5.5642 13.9033C5.52699 13.9405 5.48282 13.9701 5.4342 13.9902C5.38559 14.0103 5.33348 14.0207 5.28087 14.0207C5.22825 14.0207 5.17614 14.0103 5.12753 13.9902C5.07891 13.9701 5.03474 13.9405 4.99753 13.9033C4.96032 13.8661 4.93081 13.822 4.91067 13.7733C4.89054 13.7247 4.88017 13.6726 4.88017 13.62C4.88017 13.5674 4.89054 13.5153 4.91067 13.4667C4.93081 13.418 4.96032 13.3739 4.99753 13.3367L9.51487 8.82L4.99753 4.30333C4.96024 4.26617 4.93065 4.22202 4.91046 4.17339C4.89028 4.12477 4.87988 4.07265 4.87988 4.02C4.87988 3.96736 4.89028 3.91523 4.91046 3.86661C4.93065 3.81799 4.96024 3.77383 4.99753 3.73667Z" fill="#453F3A"/>
</svg>
