<svg width="18" height="18" viewBox="0 0 18 18" fill="none" xmlns="http://www.w3.org/2000/svg">
<path d="M11.52 3.15005V4.05005H14.67C14.7894 4.05005 14.9038 4.09746 14.9882 4.18185C15.0726 4.26624 15.12 4.3807 15.12 4.50005C15.12 4.6194 15.0726 4.73386 14.9882 4.81825C14.9038 4.90264 14.7894 4.95005 14.67 4.95005H14.1863L13.4175 14.544C13.3813 14.9951 13.1765 15.4161 12.8439 15.7229C12.5113 16.0298 12.0753 16.2002 11.6228 16.2H6.01652C5.5641 16.2 5.12829 16.0296 4.79585 15.7227C4.4634 15.4158 4.25871 14.995 4.22252 14.544L3.45452 4.95005H2.97002C2.85067 4.95005 2.73621 4.90264 2.65182 4.81825C2.56743 4.73386 2.52002 4.6194 2.52002 4.50005C2.52002 4.3807 2.56743 4.26624 2.65182 4.18185C2.73621 4.09746 2.85067 4.05005 2.97002 4.05005H6.12002V3.15005C6.12002 2.97276 6.15494 2.79722 6.22278 2.63343C6.29063 2.46964 6.39007 2.32081 6.51543 2.19545C6.64079 2.0701 6.78961 1.97066 6.9534 1.90281C7.11719 1.83497 7.29274 1.80005 7.47002 1.80005H10.17C10.3473 1.80005 10.5229 1.83497 10.6866 1.90281C10.8504 1.97066 10.9993 2.0701 11.1246 2.19545C11.25 2.32081 11.3494 2.46964 11.4173 2.63343C11.4851 2.79722 11.52 2.97276 11.52 3.15005ZM7.02002 3.15005V4.05005H10.62V3.15005C10.62 3.09095 10.6084 3.03244 10.5858 2.97784C10.5632 2.92324 10.53 2.87364 10.4882 2.83185C10.4464 2.79006 10.3968 2.75692 10.3422 2.7343C10.2876 2.71169 10.2291 2.70005 10.17 2.70005H7.47002C7.41092 2.70005 7.35241 2.71169 7.29781 2.7343C7.24322 2.75692 7.19361 2.79006 7.15182 2.83185C7.11004 2.87364 7.07689 2.92324 7.05427 2.97784C7.03166 3.03244 7.02002 3.09095 7.02002 3.15005ZM5.67002 6.3263L6.12002 13.9763C6.12357 14.0353 6.1387 14.093 6.16455 14.1462C6.1904 14.1993 6.22647 14.2468 6.27069 14.2861C6.31492 14.3253 6.36643 14.3554 6.42229 14.3747C6.47816 14.394 6.53727 14.4021 6.59627 14.3985C6.65527 14.395 6.71299 14.3799 6.76614 14.354C6.81928 14.3282 6.86682 14.2921 6.90603 14.2479C6.94524 14.2036 6.97535 14.1521 6.99466 14.0963C7.01396 14.0404 7.02207 13.9813 7.01852 13.9223L6.56852 6.2723C6.56497 6.2133 6.54984 6.15558 6.52399 6.10243C6.49814 6.04928 6.46207 6.00175 6.41785 5.96254C6.37362 5.92333 6.32211 5.89321 6.26625 5.87391C6.21038 5.85461 6.15127 5.8465 6.09227 5.85005C6.03327 5.85359 5.97555 5.86873 5.9224 5.89458C5.86926 5.92043 5.82172 5.9565 5.78251 6.00072C5.7433 6.04495 5.71319 6.09646 5.69388 6.15232C5.67458 6.20819 5.66647 6.2673 5.67002 6.3263ZM11.547 5.85155C11.428 5.84479 11.3112 5.88553 11.2221 5.96484C11.1331 6.04415 11.0792 6.15554 11.0723 6.27455L10.6223 13.9245C10.6201 14.0408 10.663 14.1533 10.742 14.2386C10.821 14.3239 10.9299 14.3753 11.0459 14.3821C11.162 14.3889 11.2761 14.3505 11.3645 14.275C11.4529 14.1995 11.5086 14.0927 11.52 13.977L11.97 6.32705C11.9735 6.26805 11.9653 6.20895 11.9459 6.15313C11.9265 6.0973 11.8963 6.04584 11.857 6.00169C11.8177 5.95753 11.7701 5.92155 11.7169 5.89579C11.6638 5.87003 11.606 5.85499 11.547 5.85155ZM8.82002 5.85005C8.76093 5.85005 8.70241 5.86169 8.64781 5.8843C8.59322 5.90692 8.54361 5.94006 8.50182 5.98185C8.46004 6.02364 8.42689 6.07324 8.40427 6.12784C8.38166 6.18244 8.37002 6.24095 8.37002 6.30005V13.95C8.37002 14.0694 8.41743 14.1839 8.50182 14.2682C8.58621 14.3526 8.70067 14.4 8.82002 14.4C8.93937 14.4 9.05383 14.3526 9.13822 14.2682C9.22261 14.1839 9.27002 14.0694 9.27002 13.95V6.30005C9.27002 6.1807 9.22261 6.06624 9.13822 5.98185C9.05383 5.89746 8.93937 5.85005 8.82002 5.85005Z" fill="#A46C46"/>
</svg>
