<svg width="18" height="18" viewBox="0 0 18 18" fill="none" xmlns="http://www.w3.org/2000/svg">
<path d="M15.3923 3.90597C15.4763 3.99032 15.5235 4.10453 15.5235 4.2236C15.5235 4.34266 15.4763 4.45688 15.3923 4.54122L14.4525 5.48097L12.6525 3.68097L13.5915 2.74122C13.6759 2.65695 13.7903 2.60962 13.9095 2.60962C14.0288 2.60962 14.1432 2.65695 14.2275 2.74122L15.3915 3.90522V3.90597H15.3923ZM13.8173 6.11622L12.0173 4.31622L5.88528 10.449C5.83582 10.4985 5.79858 10.5588 5.77653 10.6252L5.05203 12.798C5.03867 12.8377 5.03666 12.8803 5.04623 12.9211C5.0558 12.9619 5.07656 12.9992 5.10618 13.0288C5.13581 13.0584 5.17311 13.0792 5.21389 13.0888C5.25468 13.0983 5.29732 13.0963 5.33703 13.083L7.50903 12.3577C7.57536 12.3359 7.6357 12.2989 7.68528 12.2497L13.8173 6.11622Z" fill="#A46C46"/>
<path fill-rule="evenodd" clip-rule="evenodd" d="M2.34009 14.3101C2.34009 14.6681 2.48232 15.0115 2.73549 15.2647C2.98867 15.5178 3.33205 15.6601 3.69009 15.6601H13.5901C13.9481 15.6601 14.2915 15.5178 14.5447 15.2647C14.7979 15.0115 14.9401 14.6681 14.9401 14.3101V8.91006C14.9401 8.85096 14.9284 8.79245 14.9058 8.73785C14.8832 8.68325 14.8501 8.63365 14.8083 8.59186C14.7665 8.55007 14.7169 8.51693 14.6623 8.49431C14.6077 8.4717 14.5492 8.46006 14.4901 8.46006C14.431 8.46006 14.3725 8.4717 14.3179 8.49431C14.2633 8.51693 14.2137 8.55007 14.1719 8.59186C14.1301 8.63365 14.097 8.68325 14.0743 8.73785C14.0517 8.79245 14.0401 8.85096 14.0401 8.91006V14.3101C14.0401 14.3692 14.0284 14.4277 14.0058 14.4823C13.9832 14.5369 13.9501 14.5865 13.9083 14.6283C13.8665 14.67 13.8169 14.7032 13.7623 14.7258C13.7077 14.7484 13.6492 14.7601 13.5901 14.7601H3.69009C3.63099 14.7601 3.57248 14.7484 3.51788 14.7258C3.46328 14.7032 3.41368 14.67 3.37189 14.6283C3.3301 14.5865 3.29696 14.5369 3.27434 14.4823C3.25173 14.4277 3.24009 14.3692 3.24009 14.3101V4.41006C3.24009 4.29071 3.2875 4.17625 3.37189 4.09186C3.45628 4.00747 3.57074 3.96006 3.69009 3.96006H9.54009C9.59918 3.96006 9.6577 3.94842 9.7123 3.9258C9.76689 3.90319 9.8165 3.87004 9.85829 3.82826C9.90007 3.78647 9.93322 3.73686 9.95583 3.68227C9.97845 3.62767 9.99009 3.56915 9.99009 3.51006C9.99009 3.45096 9.97845 3.39245 9.95583 3.33785C9.93322 3.28325 9.90007 3.23365 9.85829 3.19186C9.8165 3.15007 9.76689 3.11693 9.7123 3.09431C9.6577 3.0717 9.59918 3.06006 9.54009 3.06006H3.69009C3.33205 3.06006 2.98867 3.20229 2.73549 3.45546C2.48232 3.70864 2.34009 4.05202 2.34009 4.41006V14.3101Z" fill="#A46C46"/>
</svg>
