<svg width="24" height="24" viewBox="0 0 24 24" fill="none" xmlns="http://www.w3.org/2000/svg">
<path fill-rule="evenodd" clip-rule="evenodd" d="M10.0799 17.4C10.0799 17.5592 10.1431 17.7118 10.2556 17.8243C10.3681 17.9368 10.5208 18 10.6799 18H20.2799C20.439 18 20.5916 17.9368 20.7041 17.8243C20.8167 17.7118 20.8799 17.5592 20.8799 17.4V6.60005C20.8799 6.44092 20.8167 6.28831 20.7041 6.17578C20.5916 6.06326 20.439 6.00005 20.2799 6.00005H10.6799C10.5208 6.00005 10.3681 6.06326 10.2556 6.17578C10.1431 6.28831 10.0799 6.44092 10.0799 6.60005V9.00005C10.0799 9.15918 10.0167 9.31179 9.90415 9.42431C9.79163 9.53683 9.63901 9.60005 9.47988 9.60005C9.32075 9.60005 9.16814 9.53683 9.05562 9.42431C8.9431 9.31179 8.87988 9.15918 8.87988 9.00005V6.60005C8.87988 6.12266 9.06952 5.66482 9.40709 5.32726C9.74466 4.98969 10.2025 4.80005 10.6799 4.80005H20.2799C20.7573 4.80005 21.2151 4.98969 21.5527 5.32726C21.8902 5.66482 22.0799 6.12266 22.0799 6.60005V17.4C22.0799 17.8774 21.8902 18.3353 21.5527 18.6728C21.2151 19.0104 20.7573 19.2 20.2799 19.2H10.6799C10.4435 19.2 10.2094 19.1535 9.99105 19.063C9.77267 18.9726 9.57424 18.84 9.40709 18.6728C9.23994 18.5057 9.10736 18.3073 9.0169 18.0889C8.92644 17.8705 8.87988 17.6364 8.87988 17.4V15C8.87988 14.9213 8.8954 14.8432 8.92556 14.7704C8.95571 14.6976 8.9999 14.6315 9.05562 14.5758C9.11133 14.5201 9.17748 14.4759 9.25027 14.4457C9.32307 14.4156 9.40109 14.4 9.47988 14.4C9.55868 14.4 9.6367 14.4156 9.70949 14.4457C9.78229 14.4759 9.84843 14.5201 9.90415 14.5758C9.95986 14.6315 10.0041 14.6976 10.0342 14.7704C10.0644 14.8432 10.0799 14.9213 10.0799 15V17.4Z" fill="#A46C46"/>
<path fill-rule="evenodd" clip-rule="evenodd" d="M3.05391 12.424C2.99798 12.3683 2.9536 12.302 2.92331 12.2291C2.89303 12.1562 2.87744 12.078 2.87744 11.999C2.87744 11.92 2.89303 11.8419 2.92331 11.7689C2.9536 11.696 2.99798 11.6298 3.05391 11.574L6.65391 7.97401C6.70973 7.9182 6.77599 7.87393 6.84891 7.84373C6.92183 7.81352 6.99998 7.79797 7.07891 7.79797C7.15784 7.79797 7.236 7.81352 7.30892 7.84373C7.38184 7.87393 7.4481 7.9182 7.50391 7.97401C7.55973 8.02983 7.604 8.09608 7.6342 8.16901C7.66441 8.24193 7.67996 8.32008 7.67996 8.39901C7.67996 8.47794 7.66441 8.5561 7.6342 8.62902C7.604 8.70194 7.55973 8.7682 7.50391 8.82401L4.92691 11.4H15.4799C15.639 11.4 15.7917 11.4632 15.9042 11.5758C16.0167 11.6883 16.0799 11.8409 16.0799 12C16.0799 12.1591 16.0167 12.3118 15.9042 12.4243C15.7917 12.5368 15.639 12.6 15.4799 12.6H4.92691L7.50391 15.175C7.55973 15.2308 7.604 15.2971 7.6342 15.37C7.66441 15.4429 7.67996 15.5211 7.67996 15.6C7.67996 15.6789 7.66441 15.7571 7.6342 15.83C7.604 15.9029 7.55973 15.9692 7.50391 16.025C7.4481 16.0808 7.38184 16.1251 7.30892 16.1553C7.236 16.1855 7.15784 16.2011 7.07891 16.2011C6.99998 16.2011 6.92183 16.1855 6.84891 16.1553C6.77599 16.1251 6.70973 16.0808 6.65391 16.025L3.05391 12.425V12.424Z" fill="#A46C46"/>
</svg>
