<svg width="16" height="16" viewBox="0 0 16 16" fill="none" xmlns="http://www.w3.org/2000/svg">
<path d="M11.5695 8.83333C11.4037 8.83333 11.2448 8.89918 11.1276 9.01639C11.0103 9.1336 10.9445 9.29257 10.9445 9.45833C10.9445 9.62409 11.0103 9.78306 11.1276 9.90027C11.2448 10.0175 11.4037 10.0833 11.5695 10.0833H13.2362C13.4019 10.0833 13.5609 10.0175 13.6781 9.90027C13.7953 9.78306 13.8612 9.62409 13.8612 9.45833C13.8612 9.29257 13.7953 9.1336 13.6781 9.01639C13.5609 8.89918 13.4019 8.83333 13.2362 8.83333H11.5695ZM14.0695 2.79167C14.0695 2.18388 13.8281 1.60098 13.3983 1.17121C12.9685 0.741443 12.3856 0.5 11.7778 0.5H2.40283C2.14547 0.500043 1.89087 0.553069 1.65488 0.655776C1.4189 0.758484 1.20659 0.908673 1.03117 1.09699C0.855746 1.28531 0.720972 1.50773 0.635238 1.7504C0.549504 1.99306 0.514645 2.25078 0.532832 2.5075C0.529643 2.53265 0.527973 2.55798 0.527832 2.58333V12.7917C0.527832 13.51 0.813173 14.1988 1.32108 14.7067C1.829 15.2147 2.51787 15.5 3.23617 15.5H13.6528C14.2606 15.5 14.8435 15.2586 15.2733 14.8288C15.7031 14.399 15.9445 13.8161 15.9445 13.2083V5.29167C15.9447 4.75604 15.7572 4.23727 15.4147 3.82548C15.0721 3.41369 14.5962 3.13489 14.0695 3.0375V2.79167ZM1.77783 2.375C1.77783 2.20924 1.84368 2.05027 1.96089 1.93306C2.0781 1.81585 2.23707 1.75 2.40283 1.75H11.7778C12.3528 1.75 12.8195 2.21667 12.8195 2.79167V3H2.40283C2.23707 3 2.0781 2.93415 1.96089 2.81694C1.84368 2.69973 1.77783 2.54076 1.77783 2.375ZM2.40283 4.25H13.6528C14.2278 4.25 14.6945 4.71667 14.6945 5.29167V13.2083C14.6945 13.7833 14.2278 14.25 13.6528 14.25H3.23617C2.84939 14.25 2.47846 14.0964 2.20497 13.8229C1.93148 13.5494 1.77783 13.1784 1.77783 12.7917V4.14333C1.97367 4.2125 2.18367 4.25 2.40283 4.25Z" fill="#453F3A"/>
</svg>
