<svg width="21" height="16" viewBox="0 0 21 16" fill="none" xmlns="http://www.w3.org/2000/svg">
<path d="M20.4429 7.73897L18.3 2.73897C18.2453 2.60987 18.1539 2.49971 18.037 2.42223C17.9201 2.34475 17.7831 2.30337 17.6429 2.30326H15.5V0.874686C15.5 0.685246 15.4247 0.503565 15.2908 0.36961C15.1568 0.235655 14.9752 0.1604 14.7857 0.1604H1.21429C1.02485 0.1604 0.843164 0.235655 0.709209 0.36961C0.575255 0.503565 0.5 0.685246 0.5 0.874686V13.0175C0.5 13.207 0.575255 13.3887 0.709209 13.5226C0.843164 13.6566 1.02485 13.7318 1.21429 13.7318H2.74286C2.90734 14.3371 3.26643 14.8714 3.76471 15.2524C4.26299 15.6333 4.87278 15.8397 5.5 15.8397C6.12722 15.8397 6.73701 15.6333 7.23529 15.2524C7.73357 14.8714 8.09266 14.3371 8.25714 13.7318H12.7429C12.9073 14.3371 13.2664 14.8714 13.7647 15.2524C14.263 15.6333 14.8728 15.8397 15.5 15.8397C16.1272 15.8397 16.737 15.6333 17.2353 15.2524C17.7336 14.8714 18.0927 14.3371 18.2571 13.7318H19.7857C19.9752 13.7318 20.1568 13.6566 20.2908 13.5226C20.4247 13.3887 20.5 13.207 20.5 13.0175V8.01754C20.4998 7.92179 20.4804 7.82706 20.4429 7.73897ZM15.5 3.73183H17.1714L18.7 7.30326H15.5V3.73183ZM5.5 14.4461C5.21746 14.4461 4.94126 14.3623 4.70633 14.2054C4.4714 14.0484 4.2883 13.8253 4.18017 13.5642C4.07205 13.3032 4.04376 13.016 4.09888 12.7388C4.154 12.4617 4.29006 12.2072 4.48985 12.0074C4.68964 11.8076 4.94418 11.6715 5.2213 11.6164C5.49842 11.5613 5.78565 11.5896 6.04669 11.6977C6.30773 11.8058 6.53084 11.9889 6.68781 12.2239C6.84479 12.4588 6.92857 12.735 6.92857 13.0175C6.92857 13.3964 6.77806 13.7598 6.51015 14.0277C6.24224 14.2956 5.87888 14.4461 5.5 14.4461ZM12.7429 12.3033H8.25714C8.09266 11.698 7.73357 11.1637 7.23529 10.7827C6.73701 10.4018 6.12722 10.1954 5.5 10.1954C4.87278 10.1954 4.26299 10.4018 3.76471 10.7827C3.26643 11.1637 2.90734 11.698 2.74286 12.3033H1.92857V1.58897H14.0714V10.5604C13.7462 10.7492 13.4614 11.0003 13.2334 11.2994C13.0054 11.5985 12.8387 11.9396 12.7429 12.3033ZM15.5 14.4461C15.2175 14.4461 14.9413 14.3623 14.7063 14.2054C14.4714 14.0484 14.2883 13.8253 14.1802 13.5642C14.072 13.3032 14.0438 13.016 14.0989 12.7388C14.154 12.4617 14.2901 12.2072 14.4898 12.0074C14.6896 11.8076 14.9442 11.6715 15.2213 11.6164C15.4984 11.5613 15.7857 11.5896 16.0467 11.6977C16.3077 11.8058 16.5308 11.9889 16.6878 12.2239C16.8448 12.4588 16.9286 12.735 16.9286 13.0175C16.9286 13.3964 16.7781 13.7598 16.5102 14.0277C16.2422 14.2956 15.8789 14.4461 15.5 14.4461ZM19.0714 12.3033H18.2571C18.0992 11.6915 17.7429 11.1493 17.244 10.7616C16.7452 10.3739 16.1318 10.1625 15.5 10.1604V8.73183H19.0714V12.3033Z" fill="#343A40"/>
</svg>
