<svg width="21" height="22" viewBox="0 0 21 22" fill="none" xmlns="http://www.w3.org/2000/svg">
<path d="M10.5 0.998779C4.97842 0.998779 0.5 5.4772 0.5 11.0012C0.5 16.5253 4.97842 21.0012 10.5 21.0012C16.0216 21.0012 20.5 16.5228 20.5 11.0012C20.5 5.47967 16.024 0.998779 10.5 0.998779ZM11.9501 15.6005C11.9501 17.1295 11.2522 17.9038 10.431 18.2984C9.60974 18.6905 8.66523 18.7004 8.16954 18.7004H7.36067C7.30395 18.7004 7.25709 18.6535 7.25709 18.5993V16.762C7.25709 16.7053 7.30395 16.6609 7.36067 16.6609C8.98582 16.6437 9.25956 15.852 9.25956 15.312C9.25956 14.7966 9.27682 8.94452 9.27929 8.09866C9.27929 8.04194 9.32614 7.99755 9.38286 7.99755H11.8588C11.9155 7.99755 11.9624 8.0444 11.9624 8.09866C11.9599 8.78423 11.9501 12.7744 11.9501 15.6005ZM12.3841 5.41555C12.3841 6.05427 11.9895 6.62887 11.3927 6.85821L9.40752 7.6227C9.3582 7.63996 9.30641 7.60544 9.30641 7.55365V6.12085C9.30641 6.05427 9.34587 5.99508 9.40752 5.97042L12.3816 4.82862V5.41555H12.3841ZM13.2842 2.96425C13.2842 3.60544 12.8872 4.1825 12.2854 4.40938L9.40752 5.4994C9.3582 5.51666 9.30641 5.48213 9.30641 5.43035V3.99755C9.30641 3.93096 9.34834 3.87178 9.40999 3.84711L13.2818 2.37979V2.96425H13.2842Z" fill="#304FFE"/>
</svg>
