<svg width="21" height="20" viewBox="0 0 21 20" fill="none" xmlns="http://www.w3.org/2000/svg">
<path fill-rule="evenodd" clip-rule="evenodd" d="M16.2758 5.92129C16.3363 5.90201 16.4158 5.94056 16.4954 6.04659C16.4954 6.04659 16.4954 6.04659 20.0924 9.6C20.3025 9.81205 20.3025 10.1333 20.0924 10.2908C20.0924 10.2908 20.0924 10.2908 16.4954 13.8988C16.4158 14.0048 16.3363 14.0305 16.2758 13.9984C16.2153 13.9663 16.1771 13.8731 16.1771 13.7382V6.15261C16.1771 6.02088 16.2153 5.94056 16.2758 5.92129Z" fill="#ED1C24"/>
<path fill-rule="evenodd" clip-rule="evenodd" d="M10.1227 0H10.3773L10.6224 0.102812C10.6224 0.102812 10.6224 0.102811 14.3245 3.81687C14.4836 4.02892 14.4295 4.18956 14.1653 4.18956C14.1653 4.18956 14.1653 4.18956 12.631 4.18956C12.3668 4.18956 12.1567 4.40161 12.1567 4.66827C12.1567 4.66827 12.1567 4.66827 12.1567 7.4249C12.1567 7.69157 11.9435 7.90361 11.6251 7.90361C11.6251 7.90361 11.6251 7.90361 8.92898 7.90361C8.66477 7.90361 8.4515 7.69157 8.4515 7.4249C8.4515 7.4249 8.4515 7.4249 8.4515 4.66827C8.4515 4.40161 8.24141 4.18956 7.97402 4.18956H6.33467C6.07047 4.18956 6.01635 4.02892 6.17551 3.81687C6.17551 3.81687 6.17551 3.81687 9.88075 0.102812L10.1227 0Z" fill="#ED1C24"/>
<path fill-rule="evenodd" clip-rule="evenodd" d="M4.3229 5.84096C4.38974 5.87309 4.43112 5.96626 4.43112 6.1012V13.8442C4.43112 13.9791 4.38974 14.0594 4.3229 14.0851C4.25923 14.1108 4.16692 14.0851 4.05869 14.0048C4.05869 14.0048 4.05869 14.0048 0.407568 10.2908C0.197477 10.1333 0.197477 9.81205 0.407568 9.6C0.407568 9.6 0.407568 9.6 4.05869 5.94056C4.16692 5.83454 4.25923 5.80884 4.3229 5.84096Z" fill="#ED1C24"/>
<path fill-rule="evenodd" clip-rule="evenodd" d="M8.92898 11.9357C8.92898 11.9357 8.92898 11.9357 11.6251 11.9357C11.9435 11.9357 12.1567 12.1478 12.1567 12.4145C12.1567 12.4145 12.1567 12.4145 12.1567 15.3317C12.1567 15.6498 12.3668 15.8618 12.631 15.8618H14.0603C14.3245 15.8618 14.4295 16.0193 14.2194 16.1799C14.2194 16.1799 14.2194 16.1799 10.6224 19.8394C10.5142 19.9454 10.3837 20 10.25 20C10.1195 20 9.9858 19.9454 9.88075 19.8394C9.88075 19.8394 9.88075 19.8394 6.28374 16.1799C6.07047 16.0193 6.17551 15.8618 6.43972 15.8618C6.43972 15.8618 6.43972 15.8618 7.97402 15.8618C8.24141 15.8618 8.4515 15.6498 8.4515 15.3317C8.4515 15.3317 8.4515 15.3317 8.4515 12.4145C8.4515 12.1478 8.66477 11.9357 8.92898 11.9357Z" fill="#ED1C24"/>
</svg>
