<svg width="17" height="14" viewBox="0 0 17 14" fill="none" xmlns="http://www.w3.org/2000/svg">
<path d="M2.75 0.5C2.02065 0.5 1.32118 0.789731 0.805456 1.30546C0.289731 1.82118 0 2.52065 0 3.25V8.75C0 9.47935 0.289731 10.1788 0.805456 10.6945C1.32118 11.2103 2.02065 11.5 2.75 11.5H8.245C8.13334 11.1763 8.05951 10.8407 8.025 10.5H2.75C2.28587 10.5 1.84075 10.3156 1.51256 9.98744C1.18437 9.65925 1 9.21413 1 8.75V4.5H10.17C10.302 4.127 10.506 3.789 10.764 3.5H1V3.25C1 2.284 1.784 1.5 2.75 1.5H13.25C14.216 1.5 15 2.284 15 3.25V3.264C15.614 3.814 16 4.611 16 5.5V3.25C16 2.52065 15.7103 1.82118 15.1945 1.30546C14.6788 0.789731 13.9793 0.5 13.25 0.5H2.75ZM11 5.5C11 4.96957 11.2107 4.46086 11.5858 4.08579C11.9609 3.71071 12.4696 3.5 13 3.5C13.5304 3.5 14.0391 3.71071 14.4142 4.08579C14.7893 4.46086 15 4.96957 15 5.5C15 6.03043 14.7893 6.53914 14.4142 6.91421C14.0391 7.28929 13.5304 7.5 13 7.5C12.4696 7.5 11.9609 7.28929 11.5858 6.91421C11.2107 6.53914 11 6.03043 11 5.5ZM10.5 8.5H15.5C15.8978 8.5 16.2794 8.65804 16.5607 8.93934C16.842 9.22064 17 9.60218 17 10C17 11.116 16.541 12.01 15.788 12.615C15.047 13.21 14.053 13.5 13 13.5C11.947 13.5 10.953 13.21 10.212 12.615C9.46 12.01 9 11.116 9 10C9 9.60218 9.15804 9.22064 9.43934 8.93934C9.72064 8.65804 10.1022 8.5 10.5 8.5Z" fill="#453F3A"/>
</svg>
