<svg width="15" height="20" viewBox="0 0 15 20" fill="none" xmlns="http://www.w3.org/2000/svg">
<path d="M13.8907 11.4817C13.8901 11.4816 7.14352 9.98322 7.14352 9.98322C5.1326 9.53659 3.87113 7.57454 4.32607 5.6008C4.78127 3.62706 6.78044 2.38925 8.79136 2.83574C10.8024 3.2824 12.0637 5.24444 11.6088 7.21805C11.3808 8.2062 10.7658 9.00916 9.95604 9.50939C9.9559 9.50939 9.95394 9.51137 9.95319 9.51137C9.92937 9.52818 9.91397 9.55542 9.91397 9.58619C9.91397 9.62925 9.94425 9.66541 9.98516 9.67505C9.98529 9.67517 12.9865 10.3413 12.987 10.3413C13.0584 10.3572 13.1325 10.3301 13.1764 10.2732C14.0032 9.19946 14.5 7.85955 14.5 6.41043C14.5 2.99774 11.7833 0.208803 8.35673 0.0107203C8.32618 0.00875435 8.14048 0.0018938 8.07775 0.000910812C6.56059 -0.0224844 5.02233 0.404454 3.68466 1.32388C0.306551 3.64532 -0.5142 8.21469 1.85088 11.53L7.85336 19.9435C7.879 19.9778 7.92027 20 7.96658 20C8.01329 20 8.05469 19.9774 8.0802 19.9429C8.0802 19.9429 13.9745 11.693 13.975 11.6922C13.99 11.6704 13.999 11.6438 13.999 11.6154C13.999 11.5502 13.9528 11.4957 13.8907 11.4817Z" fill="#FABC26"/>
</svg>
