<svg width="24" height="24" viewBox="0 0 24 24" fill="none" xmlns="http://www.w3.org/2000/svg">
<path d="M11.76 3.60002C12.5556 3.60002 13.3187 3.9161 13.8813 4.4787C14.4439 5.04131 14.76 5.80437 14.76 6.60002V7.20002H8.75999V6.60002C8.75999 5.80437 9.07606 5.04131 9.63867 4.4787C10.2013 3.9161 10.9643 3.60002 11.76 3.60002ZM15.96 7.20002V6.60002C15.96 6.04847 15.8513 5.50232 15.6403 4.99275C15.4292 4.48319 15.1198 4.02018 14.7298 3.63018C14.3398 3.24017 13.8768 2.9308 13.3673 2.71973C12.8577 2.50866 12.3115 2.40002 11.76 2.40002C11.2084 2.40002 10.6623 2.50866 10.1527 2.71973C9.64315 2.9308 9.18014 3.24017 8.79014 3.63018C8.40013 4.02018 8.09076 4.48319 7.87969 4.99275C7.66862 5.50232 7.55999 6.04847 7.55999 6.60002V7.20002H3.35999V19.2C3.35999 19.8365 3.61284 20.447 4.06293 20.8971C4.51302 21.3472 5.12347 21.6 5.75999 21.6H17.76C18.3965 21.6 19.007 21.3472 19.457 20.8971C19.9071 20.447 20.16 19.8365 20.16 19.2V7.20002H15.96Z" fill="#FFFCF2"/>
</svg>
