<svg width="16" height="16" viewBox="0 0 16 16" fill="none" xmlns="http://www.w3.org/2000/svg">
<path fill-rule="evenodd" clip-rule="evenodd" d="M11.3531 1.64592C11.3997 1.69236 11.4366 1.74754 11.4618 1.80828C11.487 1.86903 11.5 1.93415 11.5 1.99992C11.5 2.06568 11.487 2.13081 11.4618 2.19155C11.4366 2.2523 11.3997 2.30747 11.3531 2.35392L5.70611 7.99992L11.3531 13.6459C11.3996 13.6924 11.4365 13.7476 11.4616 13.8083C11.4868 13.8691 11.4997 13.9342 11.4997 13.9999C11.4997 14.0657 11.4868 14.1308 11.4616 14.1915C11.4365 14.2522 11.3996 14.3074 11.3531 14.3539C11.3066 14.4004 11.2514 14.4373 11.1907 14.4624C11.13 14.4876 11.0648 14.5005 10.9991 14.5005C10.9334 14.5005 10.8683 14.4876 10.8075 14.4624C10.7468 14.4373 10.6916 14.4004 10.6451 14.3539L4.64511 8.35392C4.59854 8.30747 4.5616 8.2523 4.53639 8.19155C4.51119 8.1308 4.49821 8.06568 4.49821 7.99992C4.49821 7.93415 4.51119 7.86903 4.53639 7.80828C4.5616 7.74754 4.59854 7.69236 4.64511 7.64592L10.6451 1.64592C10.6916 1.59935 10.7467 1.56241 10.8075 1.5372C10.8682 1.512 10.9333 1.49902 10.9991 1.49902C11.0649 1.49902 11.13 1.512 11.1907 1.5372C11.2515 1.56241 11.3067 1.59935 11.3531 1.64592Z" fill="#A46C46"/>
</svg>
