<svg width="24" height="24" viewBox="0 0 24 24" fill="none" xmlns="http://www.w3.org/2000/svg">
<path fill-rule="evenodd" clip-rule="evenodd" d="M4.85494 7.49605C4.91068 7.44012 4.97692 7.39574 5.04985 7.36545C5.12278 7.33517 5.20097 7.31958 5.27994 7.31958C5.35891 7.31958 5.4371 7.33517 5.51003 7.36545C5.58296 7.39574 5.6492 7.44012 5.70494 7.49605L12.4799 14.2721L19.2549 7.49605C19.3677 7.38334 19.5205 7.32001 19.6799 7.32001C19.8393 7.32001 19.9922 7.38334 20.1049 7.49605C20.2177 7.60877 20.281 7.76165 20.281 7.92105C20.281 8.08046 20.2177 8.23334 20.1049 8.34605L12.9049 15.5461C12.8492 15.602 12.783 15.6464 12.71 15.6767C12.6371 15.7069 12.5589 15.7225 12.4799 15.7225C12.401 15.7225 12.3228 15.7069 12.2498 15.6767C12.1769 15.6464 12.1107 15.602 12.0549 15.5461L4.85494 8.34605C4.799 8.29031 4.75462 8.22408 4.72434 8.15114C4.69406 8.07821 4.67847 8.00002 4.67847 7.92105C4.67847 7.84209 4.69406 7.76389 4.72434 7.69096C4.75462 7.61803 4.799 7.5518 4.85494 7.49605Z" fill="#A46C46"/>
</svg>
