<svg width="32" height="32" viewBox="0 0 32 32" fill="none" xmlns="http://www.w3.org/2000/svg">
<path d="M9.99472 9.99335C10.069 9.91877 10.1574 9.8596 10.2546 9.81922C10.3518 9.77884 10.4561 9.75806 10.5614 9.75806C10.6667 9.75806 10.7709 9.77884 10.8682 9.81922C10.9654 9.8596 11.0537 9.91877 11.1281 9.99335L15.3601 14.228L19.5947 9.99335C19.745 9.84306 19.9488 9.75863 20.1614 9.75863C20.3739 9.75863 20.5778 9.84306 20.7281 9.99335C20.8783 10.1436 20.9628 10.3475 20.9628 10.56C20.9628 10.7726 20.8783 10.9764 20.7281 11.1267L16.4921 15.3587L20.7267 19.5934C20.8764 19.744 20.9604 19.9477 20.9604 20.16C20.9604 20.3724 20.8764 20.5761 20.7267 20.7267C20.6524 20.8013 20.5641 20.8604 20.4668 20.9008C20.3696 20.9412 20.2653 20.962 20.1601 20.962C20.0548 20.962 19.9505 20.9412 19.8533 20.9008C19.756 20.8604 19.6677 20.8013 19.5934 20.7267L15.3601 16.4907L11.1267 20.7254C10.9764 20.8756 10.7726 20.9601 10.5601 20.9601C10.3475 20.9601 10.1437 20.8756 9.99339 20.7254C9.8431 20.5751 9.75867 20.3712 9.75867 20.1587C9.75867 19.9461 9.8431 19.7423 9.99339 19.592L14.2294 15.3587L9.99472 11.1254C9.92014 11.051 9.86096 10.9627 9.82059 10.8655C9.78021 10.7682 9.75942 10.664 9.75942 10.5587C9.75942 10.4534 9.78021 10.3491 9.82059 10.2519C9.86096 10.1547 9.92014 10.0677 9.99472 9.99335Z" fill="#A46C46"/>
</svg>
