<svg width="14" height="15" viewBox="0 0 14 15" fill="none" xmlns="http://www.w3.org/2000/svg">
<path d="M0.77126 14.5C0.664679 14.4998 0.559302 14.4774 0.461831 14.4343C0.36436 14.3912 0.276927 14.3282 0.205091 14.2495C0.131957 14.1714 0.0761504 14.0787 0.0413315 13.9776C0.00651273 13.8764 -0.00653185 13.769 0.00305294 13.6624L0.191263 11.5923L8.88583 2.89845L11.603 5.61557L2.91072 14.3087L0.841166 14.4969C0.817927 14.4991 0.794598 14.5001 0.77126 14.5ZM12.1453 5.0723L9.42895 2.35518L11.0583 0.725366C11.1297 0.653922 11.2144 0.597244 11.3076 0.558574C11.4009 0.519904 11.5009 0.5 11.6018 0.5C11.7028 0.5 11.8027 0.519904 11.896 0.558574C11.9893 0.597244 12.074 0.653922 12.1453 0.725366L13.7747 2.35518C13.8461 2.42654 13.9028 2.51129 13.9414 2.60457C13.9801 2.69786 14 2.79785 14 2.89883C14 2.99981 13.9801 3.0998 13.9414 3.19309C13.9028 3.28637 13.8461 3.37112 13.7747 3.44249L12.1461 5.07153L12.1453 5.0723Z" fill="#A46C46"/>
</svg>
