<svg width="36" height="36" viewBox="0 0 36 36" fill="none" xmlns="http://www.w3.org/2000/svg">
<g clip-path="url(#clip0_678_6238)">
<path d="M18 0.96C21.3702 0.95996 24.6648 1.95932 27.467 3.83169C30.2693 5.70407 32.4534 8.36537 33.7431 11.479C35.0328 14.5927 35.3703 18.0189 34.7128 21.3244C34.0553 24.6299 32.4323 27.6661 30.0492 30.0492C26.8536 33.2448 22.5193 35.0401 18 35.0401C13.4807 35.0401 9.14645 33.2448 5.95081 30.0492C2.75516 26.8536 0.959866 22.5193 0.959866 18C0.959866 13.4807 2.75516 9.14645 5.95081 5.9508C7.52945 4.36353 9.40725 3.10514 11.4755 2.24847C13.5437 1.3918 15.7614 0.953857 18 0.96ZM18 0C14.4399 0 10.9598 1.05568 7.99974 3.03355C5.03966 5.01141 2.73255 7.82263 1.37018 11.1117C0.00779915 14.4008 -0.348661 18.02 0.345873 21.5116C1.04041 25.0033 2.75474 28.2106 5.27209 30.7279C7.78943 33.2453 10.9967 34.9596 14.4884 35.6541C17.98 36.3487 21.5992 35.9922 24.8883 34.6298C28.1774 33.2675 30.9886 30.9603 32.9665 28.0003C34.9443 25.0402 36 21.5601 36 18C36 13.2261 34.1036 8.64773 30.7279 5.27208C27.3523 1.89642 22.7739 0 18 0Z" fill="#453F3A"/>
<path d="M7.3702 6.30592C8.07128 5.71163 8.82752 5.18564 9.6286 4.73512C9.2014 5.49352 8.9998 5.87992 8.6062 6.68752C9.1633 5.87608 9.77596 5.10424 10.4398 4.37752C10.9306 3.86272 11.3926 3.49792 11.8546 3.29752C12.3682 3.07672 12.7282 3.10192 12.943 3.35992C13.1578 3.61792 13.2814 4.18312 13.363 5.08192C14.203 3.84712 15.139 2.25472 16.747 2.08792C17.5066 2.00872 18.1102 2.36992 18.5254 3.04792C18.9406 3.72592 19.1326 4.63432 19.0954 5.86672C19.075 6.50392 18.997 7.49512 18.8962 8.93032C18.7044 11.7621 18.6583 14.6018 18.7582 17.4383C17.6602 17.9543 16.5526 18.4595 15.433 18.9251C15.2406 16.0535 15.2522 13.1719 15.4678 10.3019C15.5338 9.45352 15.5878 8.88592 15.5986 8.57752C15.6262 7.93192 15.5626 7.46032 15.3994 7.13752C15.2362 6.81472 14.9926 6.69352 14.6578 6.76792C14.1418 6.88792 13.7278 7.26352 13.435 7.91392C12.967 8.95192 12.8434 10.1303 12.685 11.2499C12.4372 14.1473 12.4228 17.0599 12.6418 19.9595C11.5006 20.3408 10.3269 20.6172 9.1354 20.7851C8.89423 17.647 9.00977 14.4916 9.4798 11.3795C9.583 10.7603 9.6682 10.2839 9.7198 9.93952C9.8086 9.34552 9.8002 8.91472 9.6886 8.63752C9.577 8.36032 9.3574 8.26672 9.0778 8.37832C7.6558 8.93992 6.9754 11.3555 6.7198 12.7727C6.2237 15.4674 6.06528 18.2133 6.2482 20.9471C5.00068 20.9418 3.76627 20.6923 2.6146 20.2127C2.4082 14.9303 4.2142 10.4783 7.3702 6.30592Z" fill="#453F3A"/>
<path d="M21.6613 2.78271C22.586 2.96413 23.4881 3.2458 24.3517 3.62271C24.3721 4.08711 24.3769 4.33311 24.3757 4.85031C24.7357 4.46031 25.0369 4.29591 25.3129 4.27671C25.5889 4.25751 25.9501 4.38471 26.4025 4.65471C26.4421 4.67871 26.6017 4.78191 26.8825 4.97511C27.3229 5.97231 27.4957 6.53511 27.7609 7.76271C27.2197 7.33071 26.7313 7.04272 26.2657 6.90711C25.6417 6.73312 25.2181 6.84111 24.9805 7.23471C24.7429 7.62831 24.6205 8.40111 24.6205 9.60831C24.6205 11.4123 24.6077 13.2155 24.5821 15.0179C23.4217 15.2939 22.2529 15.7931 21.1813 16.3091C21.1357 11.7911 21.3337 7.29232 21.6613 2.78271Z" fill="#453F3A"/>
<path d="M30.1622 10.4783C30.7502 10.6571 31.3106 11.0327 31.8602 11.5679C32.4098 12.1031 32.7962 12.6479 32.9666 13.2299C33.137 13.8119 33.047 14.2787 32.693 14.6231C32.339 14.9675 31.8266 15.1031 31.1954 15.0287C30.5413 14.9445 29.9379 14.6322 29.4914 14.1467C29.0086 13.6622 28.6929 13.0362 28.5902 12.3599C28.4894 11.6795 28.5986 11.1371 28.9022 10.7687C29.2058 10.4003 29.6126 10.3103 30.1622 10.4783Z" fill="#453F3A"/>
<path d="M6.43437 22.1591C7.19598 22.1906 7.93798 22.4099 8.59437 22.7975C8.60637 23.6183 8.61957 24.0251 8.66157 24.8075C8.18376 24.3524 7.57012 24.0662 6.91437 23.9927C6.29397 23.9291 5.81397 24.0443 5.51757 24.3335C5.22117 24.6227 5.18757 25.0235 5.39037 25.5779C5.59673 26.1167 5.92105 26.6026 6.33957 26.9999C6.72076 27.3991 7.18889 27.705 7.70757 27.8939C8.15997 28.0415 8.55957 28.0307 8.93757 27.8267C9.03717 28.5383 9.09597 28.8779 9.23757 29.5223C8.84673 29.5595 8.45316 29.4885 8.09997 29.3171C7.33437 28.9571 6.59037 28.3499 5.78277 27.5327C4.97517 26.7155 4.27917 25.8527 3.85437 24.9443C3.41157 23.9939 3.44877 23.3339 3.97437 22.8431C4.49997 22.3523 5.36997 22.1123 6.43437 22.1591Z" fill="#453F3A"/>
<path d="M12.734 24.6767C13.3748 24.5711 13.694 24.5075 14.3336 24.3611C14.304 26.4835 14.2424 28.6035 14.1488 30.7211C13.5764 30.6791 13.292 30.6479 12.7292 30.5639C12.7484 30.3371 12.758 30.2207 12.7784 29.9855C12.6407 30.1971 12.4471 30.3665 12.2192 30.4751C12.0095 30.546 11.7833 30.5522 11.57 30.4931C11.0984 30.3863 10.6916 30.0791 10.3184 29.6039C9.91734 29.0868 9.64394 28.4825 9.5204 27.8399C9.3488 26.9999 9.4304 26.3111 9.776 25.7159C9.92594 25.4333 10.143 25.1918 10.4081 25.0127C10.6732 24.8336 10.9782 24.7223 11.2964 24.6887C11.5591 24.6487 11.8277 24.6802 12.074 24.7799C12.3532 24.932 12.5956 25.1433 12.7844 25.3991C12.7652 25.1147 12.7544 24.9695 12.734 24.6767ZM11.9888 29.1011C12.2564 29.1275 12.4688 29.0039 12.6152 28.7195C12.7798 28.3691 12.8406 27.9789 12.7904 27.5951C12.78 27.2716 12.6748 26.9582 12.488 26.6939C12.415 26.5944 12.3182 26.5148 12.2064 26.4624C12.0947 26.41 11.9716 26.3864 11.8484 26.3939C11.7058 26.402 11.568 26.449 11.4502 26.5298C11.3324 26.6106 11.2389 26.7221 11.18 26.8523C11.0171 27.1736 10.9643 27.5396 11.03 27.8939C11.0627 28.1992 11.1785 28.4897 11.3648 28.7339C11.4377 28.835 11.5308 28.9198 11.6382 28.983C11.7457 29.0462 11.865 29.0864 11.9888 29.1011Z" fill="#453F3A"/>
<path d="M15.4916 24.0732C16.1276 23.9028 16.4516 23.8092 17.0804 23.6112C17.0552 24.042 17.0408 24.2544 17.0084 24.6744C17.1783 24.3113 17.3928 23.9707 17.6468 23.6604C17.8482 23.4389 18.1038 23.2735 18.3884 23.1804C18.4148 23.1708 18.518 23.1492 18.698 23.1108C18.6908 24.222 18.674 24.7656 18.62 25.824C18.519 25.7464 18.4019 25.6923 18.2774 25.6657C18.1528 25.6391 18.0238 25.6408 17.9 25.6704C17.7413 25.7105 17.5947 25.7883 17.4725 25.8971C17.3502 26.006 17.2561 26.1427 17.198 26.2956C17.0552 26.6268 16.958 27.1596 16.91 27.8772C16.8284 29.0772 16.7768 29.6568 16.6616 30.7572C16.0736 30.7836 15.7808 30.7872 15.2012 30.774C15.3488 28.542 15.4484 26.3124 15.4916 24.0732Z" fill="#453F3A"/>
<path d="M19.3863 22.8347C20.0175 22.6091 20.3307 22.4915 20.9559 22.2563C20.9307 22.7075 20.9163 22.9307 20.8815 23.3735C21.0659 22.917 21.2976 22.481 21.5727 22.0727C21.7547 21.812 22.0074 21.6088 22.3011 21.4871C22.8351 21.2819 23.2935 21.4967 23.6319 22.1483C23.9703 22.7999 24.1695 23.8283 24.0735 25.0439C23.9799 26.2439 23.7939 27.4883 23.2467 28.6115C22.7967 29.5331 22.2999 30.0635 21.7479 30.2027C21.1959 30.3419 20.7879 29.9567 20.4747 29.0447C20.2347 30.6707 19.9539 32.2847 19.5687 33.8819C19.1239 33.9299 18.6769 33.9555 18.2295 33.9587C18.9783 30.2855 19.3083 26.5787 19.3863 22.8347ZM21.4359 28.1339C21.7131 28.0595 21.9555 27.7979 22.1559 27.3407C22.3784 26.8147 22.4974 26.2508 22.5063 25.6799C22.5243 25.1507 22.4559 24.7487 22.3083 24.4859C22.1607 24.2231 21.9591 24.1355 21.7083 24.2207C21.4203 24.3179 21.1851 24.6131 20.9979 25.0919C20.8046 25.6099 20.7031 26.1577 20.6979 26.7107C20.6847 27.2171 20.7423 27.5927 20.8767 27.8483C21.0111 28.1039 21.1947 28.1999 21.4359 28.1339Z" fill="#453F3A"/>
<path d="M29.1339 24.7019C27.9411 24.9791 27.3339 25.1279 26.1075 25.4579C26.0295 26.1371 26.0355 26.5787 26.1219 26.7875C26.1915 26.9567 26.3187 27.0191 26.5167 26.9603C26.6835 26.9 26.8265 26.7877 26.9247 26.6399C27.0534 26.4606 27.1523 26.2616 27.2175 26.0507C27.8559 25.8743 28.1775 25.7879 28.7991 25.6199C28.5969 26.1466 28.3378 26.6495 28.0263 27.1199C27.4203 28.0403 26.7843 28.6283 26.1063 28.8671C25.5231 29.0711 25.1199 28.8899 24.8835 28.3151C24.6471 27.7403 24.5991 26.8307 24.6915 25.6007C24.7863 24.3275 25.0011 23.0255 25.5147 21.8519C25.9755 20.7995 26.5947 20.1791 27.3735 20.0519C28.0839 19.9319 28.6659 20.2835 29.0403 21.0119C29.4003 21.7187 29.5107 22.7375 29.2803 24.0335C29.2491 24.1967 29.2023 24.4211 29.1339 24.7019ZM26.3655 23.6819C26.9571 23.5379 27.2523 23.4719 27.8415 23.3507C27.8679 22.9415 27.8199 22.6163 27.6975 22.3907C27.6574 22.2996 27.5868 22.2253 27.498 22.1804C27.4091 22.1355 27.3074 22.1229 27.2103 22.1447C26.9847 22.1903 26.7963 22.3715 26.6439 22.6859C26.5039 23.0029 26.4101 23.3383 26.3655 23.6819Z" fill="#453F3A"/>
<path d="M33.0404 21.9899C32.7188 22.0127 32.5604 22.0259 32.2316 22.0559C31.7084 23.7925 31.0255 25.4769 30.1916 27.0875C29.702 27.3023 29.4512 27.4067 28.9424 27.6119C29.7241 25.8845 30.3109 24.0753 30.692 22.2179C30.4292 22.2503 30.296 22.2683 30.032 22.3043C30.179 21.5334 30.284 20.7551 30.3464 19.9727C30.6284 19.9559 30.7688 19.9499 31.0496 19.9403C31.1528 19.0507 31.1929 18.1548 31.1696 17.2595C31.85 17.3027 32.1896 17.3363 32.8664 17.4263C32.8674 18.2639 32.8008 19.1002 32.6672 19.9271C33.0116 19.9331 33.1832 19.9379 33.524 19.9535C33.412 20.6431 33.2504 21.3237 33.0404 21.9899Z" fill="#453F3A"/>
</g>
<defs>
<clipPath id="clip0_678_6238">
<rect width="36" height="36" fill="white"/>
</clipPath>
</defs>
</svg>
