<svg width="24" height="24" viewBox="0 0 24 24" fill="none" xmlns="http://www.w3.org/2000/svg">
<path d="M9.5998 15.6C9.5998 15.4409 9.66302 15.2883 9.77554 15.1758C9.88806 15.0633 10.0407 15 10.1998 15H13.7998C13.9589 15 14.1115 15.0633 14.2241 15.1758C14.3366 15.2883 14.3998 15.4409 14.3998 15.6C14.3998 15.7592 14.3366 15.9118 14.2241 16.0243C14.1115 16.1368 13.9589 16.2 13.7998 16.2H10.1998C10.0407 16.2 9.88806 16.1368 9.77554 16.0243C9.66302 15.9118 9.5998 15.7592 9.5998 15.6ZM7.1998 12C7.1998 11.8409 7.26302 11.6883 7.37554 11.5758C7.48806 11.4633 7.64067 11.4 7.7998 11.4H16.1998C16.2786 11.4 16.3566 11.4156 16.4294 11.4457C16.5022 11.4759 16.5684 11.5201 16.6241 11.5758C16.6798 11.6315 16.724 11.6976 16.7541 11.7704C16.7843 11.8432 16.7998 11.9213 16.7998 12C16.7998 12.0788 16.7843 12.1569 16.7541 12.2297C16.724 12.3025 16.6798 12.3686 16.6241 12.4243C16.5684 12.48 16.5022 12.5242 16.4294 12.5544C16.3566 12.5845 16.2786 12.6 16.1998 12.6H7.7998C7.64067 12.6 7.48806 12.5368 7.37554 12.4243C7.26302 12.3118 7.1998 12.1592 7.1998 12ZM4.7998 8.40005C4.7998 8.24092 4.86302 8.08831 4.97554 7.97578C5.08806 7.86326 5.24067 7.80005 5.3998 7.80005H18.5998C18.6786 7.80005 18.7566 7.81557 18.8294 7.84572C18.9022 7.87587 18.9684 7.92007 19.0241 7.97578C19.0798 8.0315 19.124 8.09764 19.1541 8.17044C19.1843 8.24323 19.1998 8.32126 19.1998 8.40005C19.1998 8.47884 19.1843 8.55686 19.1541 8.62966C19.124 8.70245 19.0798 8.7686 19.0241 8.82431C18.9684 8.88003 18.9022 8.92422 18.8294 8.95438C18.7566 8.98453 18.6786 9.00005 18.5998 9.00005H5.3998C5.24067 9.00005 5.08806 8.93684 4.97554 8.82431C4.86302 8.71179 4.7998 8.55918 4.7998 8.40005Z" fill="black"/>
</svg>
