<svg width="14" height="15" viewBox="0 0 14 15" fill="none" xmlns="http://www.w3.org/2000/svg">
<path d="M13.6668 7.50004C13.6668 9.26815 12.9644 10.9638 11.7142 12.2141C10.464 13.4643 8.76827 14.1667 7.00016 14.1667C5.23205 14.1667 3.53636 13.4643 2.28612 12.2141C1.03587 10.9638 0.333496 9.26815 0.333496 7.50004C0.333496 5.73193 1.03587 4.03624 2.28612 2.786C3.53636 1.53575 5.23205 0.833374 7.00016 0.833374C8.76827 0.833374 10.464 1.53575 11.7142 2.786C12.9644 4.03624 13.6668 5.73193 13.6668 7.50004ZM7.41683 4.58337C7.41683 4.47287 7.37293 4.36689 7.29479 4.28875C7.21665 4.21061 7.11067 4.16671 7.00016 4.16671C6.88966 4.16671 6.78367 4.21061 6.70553 4.28875C6.62739 4.36689 6.5835 4.47287 6.5835 4.58337V7.08337H4.0835C3.97299 7.08337 3.86701 7.12727 3.78887 7.20541C3.71073 7.28355 3.66683 7.38953 3.66683 7.50004C3.66683 7.61055 3.71073 7.71653 3.78887 7.79467C3.86701 7.87281 3.97299 7.91671 4.0835 7.91671H6.5835V10.4167C6.5835 10.5272 6.62739 10.6332 6.70553 10.7113C6.78367 10.7895 6.88966 10.8334 7.00016 10.8334C7.11067 10.8334 7.21665 10.7895 7.29479 10.7113C7.37293 10.6332 7.41683 10.5272 7.41683 10.4167V7.91671H9.91683C10.0273 7.91671 10.1333 7.87281 10.2115 7.79467C10.2896 7.71653 10.3335 7.61055 10.3335 7.50004C10.3335 7.38953 10.2896 7.28355 10.2115 7.20541C10.1333 7.12727 10.0273 7.08337 9.91683 7.08337H7.41683V4.58337Z" fill="#A46C46"/>
</svg>
